<?xml version="1.0" encoding="utf-8"?>
<!-- Generator: Adobe Illustrator 27.5.0, SVG Export Plug-In . SVG Version: 6.00 Build 0)  -->
<svg version="1.1" id="Layer_1" xmlns="http://www.w3.org/2000/svg" xmlns:xlink="http://www.w3.org/1999/xlink" x="0px" y="0px"
	 viewBox="0 0 288.001 288" style="enable-background:new 0 0 288.001 288;" xml:space="preserve">
<g id="Film_01">
</g>
<g id="New_Symbol_8">
</g>
<g>
	<g>
		<defs>
			<rect id="SVGID_1_" x="0.001" y="0" width="288" height="288"/>
		</defs>
		
			<radialGradient id="SVGID_00000033341486087565754570000007674047357075134344_" cx="145.3339" cy="143.0001" r="227.6888" gradientUnits="userSpaceOnUse">
			<stop  offset="0.328" style="stop-color:#FFFFFF"/>
			<stop  offset="0.8851" style="stop-color:#F8F8F9"/>
			<stop  offset="1" style="stop-color:#F6F6F7"/>
		</radialGradient>
		
			<use xlink:href="#SVGID_1_"  style="overflow:visible;fill-rule:evenodd;clip-rule:evenodd;fill:url(#SVGID_00000033341486087565754570000007674047357075134344_);"/>
		<clipPath id="SVGID_00000078758007213937243170000014852718239419058364_">
			<use xlink:href="#SVGID_1_"  style="overflow:visible;"/>
		</clipPath>
		<g style="clip-path:url(#SVGID_00000078758007213937243170000014852718239419058364_);">
			<path style="fill:#0A0909;" d="M-34.464,206.605v47.07h346.482v-47.07H-34.464z M-28.272,250.76c0,0.46-0.373,0.833-0.834,0.833
				h-3.177c-0.46,0-0.833-0.373-0.833-0.833v-2.343c0-0.46,0.373-0.833,0.833-0.833h3.177c0.461,0,0.834,0.373,0.834,0.833V250.76z
				 M-28.272,211.699c0,0.46-0.373,0.833-0.834,0.833h-3.177c-0.46,0-0.833-0.373-0.833-0.833v-2.343
				c0-0.46,0.373-0.833,0.833-0.833h3.177c0.461,0,0.834,0.373,0.834,0.833V211.699z M-20.88,250.76c0,0.46-0.372,0.833-0.832,0.833
				h-3.178c-0.459,0-0.833-0.373-0.833-0.833v-2.343c0-0.46,0.374-0.833,0.833-0.833h3.178c0.46,0,0.832,0.373,0.832,0.833V250.76z
				 M-20.88,211.699c0,0.46-0.372,0.833-0.832,0.833h-3.178c-0.459,0-0.833-0.373-0.833-0.833v-2.343
				c0-0.46,0.374-0.833,0.833-0.833h3.178c0.46,0,0.832,0.373,0.832,0.833V211.699z M-13.485,250.76c0,0.46-0.373,0.833-0.834,0.833
				h-3.176c-0.46,0-0.834-0.373-0.834-0.833v-2.343c0-0.46,0.374-0.833,0.834-0.833h3.176c0.461,0,0.834,0.373,0.834,0.833V250.76z
				 M-13.485,211.699c0,0.46-0.373,0.833-0.834,0.833h-3.176c-0.46,0-0.834-0.373-0.834-0.833v-2.343
				c0-0.46,0.374-0.833,0.834-0.833h3.176c0.461,0,0.834,0.373,0.834,0.833V211.699z M-6.092,250.76c0,0.46-0.373,0.833-0.833,0.833
				h-3.178c-0.459,0-0.832-0.373-0.832-0.833v-2.343c0-0.46,0.373-0.833,0.832-0.833h3.178c0.46,0,0.833,0.373,0.833,0.833V250.76z
				 M-6.092,211.699c0,0.46-0.373,0.833-0.833,0.833h-3.178c-0.459,0-0.832-0.373-0.832-0.833v-2.343
				c0-0.46,0.373-0.833,0.832-0.833h3.178c0.46,0,0.833,0.373,0.833,0.833V211.699z M1.302,250.76c0,0.46-0.373,0.833-0.833,0.833
				h-3.177c-0.46,0-0.834-0.373-0.834-0.833v-2.343c0-0.46,0.374-0.833,0.834-0.833h3.177c0.46,0,0.833,0.373,0.833,0.833V250.76z
				 M1.302,211.699c0,0.46-0.373,0.833-0.833,0.833h-3.177c-0.46,0-0.834-0.373-0.834-0.833v-2.343c0-0.46,0.374-0.833,0.834-0.833
				h3.177c0.46,0,0.833,0.373,0.833,0.833V211.699z M8.696,250.76c0,0.46-0.373,0.833-0.834,0.833H4.686
				c-0.46,0-0.833-0.373-0.833-0.833v-2.343c0-0.46,0.373-0.833,0.833-0.833h3.177c0.461,0,0.834,0.373,0.834,0.833V250.76z
				 M8.696,211.699c0,0.46-0.373,0.833-0.834,0.833H4.686c-0.46,0-0.833-0.373-0.833-0.833v-2.343c0-0.46,0.373-0.833,0.833-0.833
				h3.177c0.461,0,0.834,0.373,0.834,0.833V211.699z M16.089,250.76c0,0.46-0.372,0.833-0.833,0.833h-3.177
				c-0.459,0-0.833-0.373-0.833-0.833v-2.343c0-0.46,0.374-0.833,0.833-0.833h3.177c0.461,0,0.833,0.373,0.833,0.833V250.76z
				 M16.089,211.699c0,0.46-0.372,0.833-0.833,0.833h-3.177c-0.459,0-0.833-0.373-0.833-0.833v-2.343
				c0-0.46,0.374-0.833,0.833-0.833h3.177c0.461,0,0.833,0.373,0.833,0.833V211.699z M23.483,250.76c0,0.46-0.373,0.833-0.833,0.833
				h-3.177c-0.461,0-0.834-0.373-0.834-0.833v-2.343c0-0.46,0.373-0.833,0.834-0.833h3.177c0.46,0,0.833,0.373,0.833,0.833V250.76z
				 M23.483,211.699c0,0.46-0.373,0.833-0.833,0.833h-3.177c-0.461,0-0.834-0.373-0.834-0.833v-2.343
				c0-0.46,0.373-0.833,0.834-0.833h3.177c0.46,0,0.833,0.373,0.833,0.833V211.699z M30.877,250.76c0,0.46-0.372,0.833-0.833,0.833
				h-3.178c-0.459,0-0.832-0.373-0.832-0.833v-2.343c0-0.46,0.373-0.833,0.832-0.833h3.178c0.461,0,0.833,0.373,0.833,0.833V250.76z
				 M30.877,211.699c0,0.46-0.372,0.833-0.833,0.833h-3.178c-0.459,0-0.832-0.373-0.832-0.833v-2.343
				c0-0.46,0.373-0.833,0.832-0.833h3.178c0.461,0,0.833,0.373,0.833,0.833V211.699z M38.271,250.76c0,0.46-0.373,0.833-0.833,0.833
				h-3.177c-0.46,0-0.833-0.373-0.833-0.833v-2.343c0-0.46,0.373-0.833,0.833-0.833h3.177c0.46,0,0.833,0.373,0.833,0.833V250.76z
				 M38.271,211.699c0,0.46-0.373,0.833-0.833,0.833h-3.177c-0.46,0-0.833-0.373-0.833-0.833v-2.343c0-0.46,0.373-0.833,0.833-0.833
				h3.177c0.46,0,0.833,0.373,0.833,0.833V211.699z M45.664,250.76c0,0.46-0.372,0.833-0.833,0.833h-3.177
				c-0.46,0-0.833-0.373-0.833-0.833v-2.343c0-0.46,0.373-0.833,0.833-0.833h3.177c0.461,0,0.833,0.373,0.833,0.833V250.76z
				 M45.664,211.699c0,0.46-0.372,0.833-0.833,0.833h-3.177c-0.46,0-0.833-0.373-0.833-0.833v-2.343c0-0.46,0.373-0.833,0.833-0.833
				h3.177c0.461,0,0.833,0.373,0.833,0.833V211.699z M53.058,250.76c0,0.46-0.372,0.833-0.833,0.833h-3.177
				c-0.459,0-0.833-0.373-0.833-0.833v-2.343c0-0.46,0.374-0.833,0.833-0.833h3.177c0.461,0,0.833,0.373,0.833,0.833V250.76z
				 M53.058,211.699c0,0.46-0.372,0.833-0.833,0.833h-3.177c-0.459,0-0.833-0.373-0.833-0.833v-2.343
				c0-0.46,0.374-0.833,0.833-0.833h3.177c0.461,0,0.833,0.373,0.833,0.833V211.699z M60.452,250.76c0,0.46-0.373,0.833-0.833,0.833
				h-3.177c-0.46,0-0.834-0.373-0.834-0.833v-2.343c0-0.46,0.374-0.833,0.834-0.833h3.177c0.46,0,0.833,0.373,0.833,0.833V250.76z
				 M60.452,211.699c0,0.46-0.373,0.833-0.833,0.833h-3.177c-0.46,0-0.834-0.373-0.834-0.833v-2.343c0-0.46,0.374-0.833,0.834-0.833
				h3.177c0.46,0,0.833,0.373,0.833,0.833V211.699z M67.846,250.76c0,0.46-0.373,0.833-0.833,0.833h-3.178
				c-0.459,0-0.833-0.373-0.833-0.833v-2.343c0-0.46,0.374-0.833,0.833-0.833h3.178c0.46,0,0.833,0.373,0.833,0.833V250.76z
				 M67.846,211.699c0,0.46-0.373,0.833-0.833,0.833h-3.178c-0.459,0-0.833-0.373-0.833-0.833v-2.343
				c0-0.46,0.374-0.833,0.833-0.833h3.178c0.46,0,0.833,0.373,0.833,0.833V211.699z M75.239,250.76c0,0.46-0.372,0.833-0.833,0.833
				h-3.177c-0.46,0-0.833-0.373-0.833-0.833v-2.343c0-0.46,0.373-0.833,0.833-0.833h3.177c0.461,0,0.833,0.373,0.833,0.833V250.76z
				 M75.239,211.699c0,0.46-0.372,0.833-0.833,0.833h-3.177c-0.46,0-0.833-0.373-0.833-0.833v-2.343c0-0.46,0.373-0.833,0.833-0.833
				h3.177c0.461,0,0.833,0.373,0.833,0.833V211.699z M82.633,250.76c0,0.46-0.372,0.833-0.833,0.833h-3.177
				c-0.46,0-0.833-0.373-0.833-0.833v-2.343c0-0.46,0.373-0.833,0.833-0.833H81.8c0.461,0,0.833,0.373,0.833,0.833V250.76z
				 M82.633,211.699c0,0.46-0.372,0.833-0.833,0.833h-3.177c-0.46,0-0.833-0.373-0.833-0.833v-2.343c0-0.46,0.373-0.833,0.833-0.833
				H81.8c0.461,0,0.833,0.373,0.833,0.833V211.699z M90.026,250.76c0,0.46-0.372,0.833-0.832,0.833h-3.178
				c-0.46,0-0.833-0.373-0.833-0.833v-2.343c0-0.46,0.373-0.833,0.833-0.833h3.178c0.46,0,0.832,0.373,0.832,0.833V250.76z
				 M90.026,211.699c0,0.46-0.372,0.833-0.832,0.833h-3.178c-0.46,0-0.833-0.373-0.833-0.833v-2.343c0-0.46,0.373-0.833,0.833-0.833
				h3.178c0.46,0,0.832,0.373,0.832,0.833V211.699z M97.421,250.76c0,0.46-0.373,0.833-0.834,0.833H93.41
				c-0.459,0-0.833-0.373-0.833-0.833v-2.343c0-0.46,0.374-0.833,0.833-0.833h3.177c0.461,0,0.834,0.373,0.834,0.833V250.76z
				 M97.421,211.699c0,0.46-0.373,0.833-0.834,0.833H93.41c-0.459,0-0.833-0.373-0.833-0.833v-2.343c0-0.46,0.374-0.833,0.833-0.833
				h3.177c0.461,0,0.834,0.373,0.834,0.833V211.699z M104.814,250.76c0,0.46-0.373,0.833-0.833,0.833h-3.178
				c-0.459,0-0.832-0.373-0.832-0.833v-2.343c0-0.46,0.373-0.833,0.832-0.833h3.178c0.46,0,0.833,0.373,0.833,0.833V250.76z
				 M104.814,211.699c0,0.46-0.373,0.833-0.833,0.833h-3.178c-0.459,0-0.832-0.373-0.832-0.833v-2.343
				c0-0.46,0.373-0.833,0.832-0.833h3.178c0.46,0,0.833,0.373,0.833,0.833V211.699z M112.208,250.76c0,0.46-0.373,0.833-0.833,0.833
				h-3.177c-0.46,0-0.834-0.373-0.834-0.833v-2.343c0-0.46,0.374-0.833,0.834-0.833h3.177c0.46,0,0.833,0.373,0.833,0.833V250.76z
				 M112.208,211.699c0,0.46-0.373,0.833-0.833,0.833h-3.177c-0.46,0-0.834-0.373-0.834-0.833v-2.343
				c0-0.46,0.374-0.833,0.834-0.833h3.177c0.46,0,0.833,0.373,0.833,0.833V211.699z M119.602,250.76c0,0.46-0.372,0.833-0.833,0.833
				h-3.177c-0.46,0-0.833-0.373-0.833-0.833v-2.343c0-0.46,0.373-0.833,0.833-0.833h3.177c0.461,0,0.833,0.373,0.833,0.833V250.76z
				 M119.602,211.699c0,0.46-0.372,0.833-0.833,0.833h-3.177c-0.46,0-0.833-0.373-0.833-0.833v-2.343
				c0-0.46,0.373-0.833,0.833-0.833h3.177c0.461,0,0.833,0.373,0.833,0.833V211.699z M126.995,250.76
				c0,0.46-0.372,0.833-0.832,0.833h-3.178c-0.459,0-0.833-0.373-0.833-0.833v-2.343c0-0.46,0.374-0.833,0.833-0.833h3.178
				c0.46,0,0.832,0.373,0.832,0.833V250.76z M126.995,211.699c0,0.46-0.372,0.833-0.832,0.833h-3.178
				c-0.459,0-0.833-0.373-0.833-0.833v-2.343c0-0.46,0.374-0.833,0.833-0.833h3.178c0.46,0,0.832,0.373,0.832,0.833V211.699z
				 M134.39,250.76c0,0.46-0.373,0.833-0.834,0.833h-3.177c-0.46,0-0.833-0.373-0.833-0.833v-2.343c0-0.46,0.373-0.833,0.833-0.833
				h3.177c0.461,0,0.834,0.373,0.834,0.833V250.76z M134.39,211.699c0,0.46-0.373,0.833-0.834,0.833h-3.177
				c-0.46,0-0.833-0.373-0.833-0.833v-2.343c0-0.46,0.373-0.833,0.833-0.833h3.177c0.461,0,0.834,0.373,0.834,0.833V211.699z
				 M141.783,250.76c0,0.46-0.372,0.833-0.833,0.833h-3.178c-0.459,0-0.832-0.373-0.832-0.833v-2.343
				c0-0.46,0.373-0.833,0.832-0.833h3.178c0.461,0,0.833,0.373,0.833,0.833V250.76z M141.783,211.699
				c0,0.46-0.372,0.833-0.833,0.833h-3.178c-0.459,0-0.832-0.373-0.832-0.833v-2.343c0-0.46,0.373-0.833,0.832-0.833h3.178
				c0.461,0,0.833,0.373,0.833,0.833V211.699z M149.177,250.76c0,0.46-0.373,0.833-0.833,0.833h-3.177
				c-0.46,0-0.834-0.373-0.834-0.833v-2.343c0-0.46,0.374-0.833,0.834-0.833h3.177c0.46,0,0.833,0.373,0.833,0.833V250.76z
				 M149.177,211.699c0,0.46-0.373,0.833-0.833,0.833h-3.177c-0.46,0-0.834-0.373-0.834-0.833v-2.343
				c0-0.46,0.374-0.833,0.834-0.833h3.177c0.46,0,0.833,0.373,0.833,0.833V211.699z M156.57,250.76c0,0.46-0.372,0.833-0.833,0.833
				h-3.177c-0.46,0-0.833-0.373-0.833-0.833v-2.343c0-0.46,0.373-0.833,0.833-0.833h3.177c0.461,0,0.833,0.373,0.833,0.833V250.76z
				 M156.57,211.699c0,0.46-0.372,0.833-0.833,0.833h-3.177c-0.46,0-0.833-0.373-0.833-0.833v-2.343c0-0.46,0.373-0.833,0.833-0.833
				h3.177c0.461,0,0.833,0.373,0.833,0.833V211.699z M163.964,250.76c0,0.46-0.372,0.833-0.832,0.833h-3.178
				c-0.459,0-0.833-0.373-0.833-0.833v-2.343c0-0.46,0.374-0.833,0.833-0.833h3.178c0.46,0,0.832,0.373,0.832,0.833V250.76z
				 M163.964,211.699c0,0.46-0.372,0.833-0.832,0.833h-3.178c-0.459,0-0.833-0.373-0.833-0.833v-2.343
				c0-0.46,0.374-0.833,0.833-0.833h3.178c0.46,0,0.832,0.373,0.832,0.833V211.699z M171.358,250.76c0,0.46-0.373,0.833-0.834,0.833
				h-3.177c-0.46,0-0.833-0.373-0.833-0.833v-2.343c0-0.46,0.373-0.833,0.833-0.833h3.177c0.461,0,0.834,0.373,0.834,0.833V250.76z
				 M171.358,211.699c0,0.46-0.373,0.833-0.834,0.833h-3.177c-0.46,0-0.833-0.373-0.833-0.833v-2.343
				c0-0.46,0.373-0.833,0.833-0.833h3.177c0.461,0,0.834,0.373,0.834,0.833V211.699z M178.752,250.76
				c0,0.46-0.373,0.833-0.833,0.833h-3.178c-0.459,0-0.832-0.373-0.832-0.833v-2.343c0-0.46,0.373-0.833,0.832-0.833h3.178
				c0.46,0,0.833,0.373,0.833,0.833V250.76z M178.752,211.699c0,0.46-0.373,0.833-0.833,0.833h-3.178
				c-0.459,0-0.832-0.373-0.832-0.833v-2.343c0-0.46,0.373-0.833,0.832-0.833h3.178c0.46,0,0.833,0.373,0.833,0.833V211.699z
				 M186.145,250.76c0,0.46-0.373,0.833-0.833,0.833h-3.177c-0.46,0-0.834-0.373-0.834-0.833v-2.343c0-0.46,0.374-0.833,0.834-0.833
				h3.177c0.46,0,0.833,0.373,0.833,0.833V250.76z M186.145,211.699c0,0.46-0.373,0.833-0.833,0.833h-3.177
				c-0.46,0-0.834-0.373-0.834-0.833v-2.343c0-0.46,0.374-0.833,0.834-0.833h3.177c0.46,0,0.833,0.373,0.833,0.833V211.699z
				 M193.54,250.76c0,0.46-0.373,0.833-0.834,0.833h-3.177c-0.46,0-0.833-0.373-0.833-0.833v-2.343c0-0.46,0.373-0.833,0.833-0.833
				h3.177c0.461,0,0.834,0.373,0.834,0.833V250.76z M193.54,211.699c0,0.46-0.373,0.833-0.834,0.833h-3.177
				c-0.46,0-0.833-0.373-0.833-0.833v-2.343c0-0.46,0.373-0.833,0.833-0.833h3.177c0.461,0,0.834,0.373,0.834,0.833V211.699z
				 M200.933,250.76c0,0.46-0.373,0.833-0.832,0.833h-3.178c-0.46,0-0.833-0.373-0.833-0.833v-2.343c0-0.46,0.373-0.833,0.833-0.833
				h3.178c0.459,0,0.832,0.373,0.832,0.833V250.76z M200.933,211.699c0,0.46-0.373,0.833-0.832,0.833h-3.178
				c-0.46,0-0.833-0.373-0.833-0.833v-2.343c0-0.46,0.373-0.833,0.833-0.833h3.178c0.459,0,0.832,0.373,0.832,0.833V211.699z
				 M208.327,250.76c0,0.46-0.373,0.833-0.834,0.833h-3.176c-0.461,0-0.834-0.373-0.834-0.833v-2.343
				c0-0.46,0.373-0.833,0.834-0.833h3.176c0.461,0,0.834,0.373,0.834,0.833V250.76z M208.327,211.699
				c0,0.46-0.373,0.833-0.834,0.833h-3.176c-0.461,0-0.834-0.373-0.834-0.833v-2.343c0-0.46,0.373-0.833,0.834-0.833h3.176
				c0.461,0,0.834,0.373,0.834,0.833V211.699z M215.721,250.76c0,0.46-0.373,0.833-0.833,0.833h-3.178
				c-0.459,0-0.832-0.373-0.832-0.833v-2.343c0-0.46,0.373-0.833,0.832-0.833h3.178c0.46,0,0.833,0.373,0.833,0.833V250.76z
				 M215.721,211.699c0,0.46-0.373,0.833-0.833,0.833h-3.178c-0.459,0-0.832-0.373-0.832-0.833v-2.343
				c0-0.46,0.373-0.833,0.832-0.833h3.178c0.46,0,0.833,0.373,0.833,0.833V211.699z M223.114,250.76c0,0.46-0.373,0.833-0.833,0.833
				h-3.177c-0.461,0-0.834-0.373-0.834-0.833v-2.343c0-0.46,0.373-0.833,0.834-0.833h3.177c0.46,0,0.833,0.373,0.833,0.833V250.76z
				 M223.114,211.699c0,0.46-0.373,0.833-0.833,0.833h-3.177c-0.461,0-0.834-0.373-0.834-0.833v-2.343
				c0-0.46,0.373-0.833,0.834-0.833h3.177c0.46,0,0.833,0.373,0.833,0.833V211.699z M230.508,250.76c0,0.46-0.372,0.833-0.833,0.833
				h-3.177c-0.46,0-0.833-0.373-0.833-0.833v-2.343c0-0.46,0.373-0.833,0.833-0.833h3.177c0.461,0,0.833,0.373,0.833,0.833V250.76z
				 M230.508,211.699c0,0.46-0.372,0.833-0.833,0.833h-3.177c-0.46,0-0.833-0.373-0.833-0.833v-2.343
				c0-0.46,0.373-0.833,0.833-0.833h3.177c0.461,0,0.833,0.373,0.833,0.833V211.699z M237.901,250.76
				c0,0.46-0.372,0.833-0.833,0.833h-3.177c-0.459,0-0.833-0.373-0.833-0.833v-2.343c0-0.46,0.374-0.833,0.833-0.833h3.177
				c0.461,0,0.833,0.373,0.833,0.833V250.76z M237.901,211.699c0,0.46-0.372,0.833-0.833,0.833h-3.177
				c-0.459,0-0.833-0.373-0.833-0.833v-2.343c0-0.46,0.374-0.833,0.833-0.833h3.177c0.461,0,0.833,0.373,0.833,0.833V211.699z
				 M245.296,250.76c0,0.46-0.373,0.833-0.834,0.833h-3.177c-0.46,0-0.833-0.373-0.833-0.833v-2.343c0-0.46,0.373-0.833,0.833-0.833
				h3.177c0.461,0,0.834,0.373,0.834,0.833V250.76z M245.296,211.699c0,0.46-0.373,0.833-0.834,0.833h-3.177
				c-0.46,0-0.833-0.373-0.833-0.833v-2.343c0-0.46,0.373-0.833,0.833-0.833h3.177c0.461,0,0.834,0.373,0.834,0.833V211.699z
				 M252.688,250.76c0,0.46-0.372,0.833-0.832,0.833h-3.178c-0.459,0-0.833-0.373-0.833-0.833v-2.343
				c0-0.46,0.374-0.833,0.833-0.833h3.178c0.46,0,0.832,0.373,0.832,0.833V250.76z M252.688,211.699c0,0.46-0.372,0.833-0.832,0.833
				h-3.178c-0.459,0-0.833-0.373-0.833-0.833v-2.343c0-0.46,0.374-0.833,0.833-0.833h3.178c0.46,0,0.832,0.373,0.832,0.833V211.699z
				 M260.083,250.76c0,0.46-0.373,0.833-0.833,0.833h-3.177c-0.46,0-0.834-0.373-0.834-0.833v-2.343c0-0.46,0.374-0.833,0.834-0.833
				h3.177c0.46,0,0.833,0.373,0.833,0.833V250.76z M260.083,211.699c0,0.46-0.373,0.833-0.833,0.833h-3.177
				c-0.46,0-0.834-0.373-0.834-0.833v-2.343c0-0.46,0.374-0.833,0.834-0.833h3.177c0.46,0,0.833,0.373,0.833,0.833V211.699z
				 M267.477,250.76c0,0.46-0.372,0.833-0.833,0.833h-3.177c-0.46,0-0.833-0.373-0.833-0.833v-2.343c0-0.46,0.373-0.833,0.833-0.833
				h3.177c0.461,0,0.833,0.373,0.833,0.833V250.76z M267.477,211.699c0,0.46-0.372,0.833-0.833,0.833h-3.177
				c-0.46,0-0.833-0.373-0.833-0.833v-2.343c0-0.46,0.373-0.833,0.833-0.833h3.177c0.461,0,0.833,0.373,0.833,0.833V211.699z
				 M274.87,250.76c0,0.46-0.372,0.833-0.833,0.833h-3.177c-0.46,0-0.833-0.373-0.833-0.833v-2.343c0-0.46,0.373-0.833,0.833-0.833
				h3.177c0.461,0,0.833,0.373,0.833,0.833V250.76z M274.87,211.699c0,0.46-0.372,0.833-0.833,0.833h-3.177
				c-0.46,0-0.833-0.373-0.833-0.833v-2.343c0-0.46,0.373-0.833,0.833-0.833h3.177c0.461,0,0.833,0.373,0.833,0.833V211.699z
				 M282.265,250.76c0,0.46-0.373,0.833-0.834,0.833h-3.177c-0.46,0-0.833-0.373-0.833-0.833v-2.343c0-0.46,0.373-0.833,0.833-0.833
				h3.177c0.461,0,0.834,0.373,0.834,0.833V250.76z M282.265,211.699c0,0.46-0.373,0.833-0.834,0.833h-3.177
				c-0.46,0-0.833-0.373-0.833-0.833v-2.343c0-0.46,0.373-0.833,0.833-0.833h3.177c0.461,0,0.834,0.373,0.834,0.833V211.699z
				 M289.657,250.76c0,0.46-0.372,0.833-0.832,0.833h-3.178c-0.459,0-0.833-0.373-0.833-0.833v-2.343
				c0-0.46,0.374-0.833,0.833-0.833h3.178c0.46,0,0.832,0.373,0.832,0.833V250.76z M289.657,211.699c0,0.46-0.372,0.833-0.832,0.833
				h-3.178c-0.459,0-0.833-0.373-0.833-0.833v-2.343c0-0.46,0.374-0.833,0.833-0.833h3.178c0.46,0,0.832,0.373,0.832,0.833V211.699z
				 M297.052,250.76c0,0.46-0.373,0.833-0.833,0.833h-3.177c-0.46,0-0.834-0.373-0.834-0.833v-2.343c0-0.46,0.374-0.833,0.834-0.833
				h3.177c0.46,0,0.833,0.373,0.833,0.833V250.76z M297.052,211.699c0,0.46-0.373,0.833-0.833,0.833h-3.177
				c-0.46,0-0.834-0.373-0.834-0.833v-2.343c0-0.46,0.374-0.833,0.834-0.833h3.177c0.46,0,0.833,0.373,0.833,0.833V211.699z
				 M304.445,250.76c0,0.46-0.372,0.833-0.833,0.833h-3.178c-0.459,0-0.832-0.373-0.832-0.833v-2.343
				c0-0.46,0.373-0.833,0.832-0.833h3.178c0.461,0,0.833,0.373,0.833,0.833V250.76z M304.445,211.699
				c0,0.46-0.372,0.833-0.833,0.833h-3.178c-0.459,0-0.832-0.373-0.832-0.833v-2.343c0-0.46,0.373-0.833,0.832-0.833h3.178
				c0.461,0,0.833,0.373,0.833,0.833V211.699z M311.839,250.76c0,0.46-0.373,0.833-0.833,0.833h-3.177
				c-0.46,0-0.833-0.373-0.833-0.833v-2.343c0-0.46,0.373-0.833,0.833-0.833h3.177c0.46,0,0.833,0.373,0.833,0.833V250.76z
				 M311.839,211.699c0,0.46-0.373,0.833-0.833,0.833h-3.177c-0.46,0-0.833-0.373-0.833-0.833v-2.343
				c0-0.46,0.373-0.833,0.833-0.833h3.177c0.46,0,0.833,0.373,0.833,0.833V211.699z"/>
			<g>
				<path style="fill:#FFFFFF;" d="M-20.617,214.374h-13.847v31.766h13.847c1.271,0,2.302-1.031,2.302-2.302v-27.162
					C-18.315,215.405-19.346,214.374-20.617,214.374z"/>
				<path style="fill:#FFFFFF;" d="M26.548,214.374h-40.053c-1.271,0-2.302,1.031-2.302,2.302v27.162
					c0,1.271,1.03,2.302,2.302,2.302h40.053c1.27,0,2.302-1.031,2.302-2.302v-27.162C28.85,215.405,27.818,214.374,26.548,214.374z"
					/>
				<path style="fill:#FFFFFF;" d="M73.712,214.374H33.659c-1.271,0-2.302,1.031-2.302,2.302v27.162c0,1.271,1.03,2.302,2.302,2.302
					h40.053c1.271,0,2.303-1.031,2.303-2.302v-27.162C76.015,215.405,74.983,214.374,73.712,214.374z"/>
				<path style="fill:#FFFFFF;" d="M120.877,214.374H80.824c-1.271,0-2.302,1.031-2.302,2.302v27.162
					c0,1.271,1.03,2.302,2.302,2.302h40.053c1.271,0,2.302-1.031,2.302-2.302v-27.162
					C123.179,215.405,122.148,214.374,120.877,214.374z"/>
				<path style="fill:#FFFFFF;" d="M168.042,214.374h-40.053c-1.271,0-2.302,1.031-2.302,2.302v27.162
					c0,1.271,1.03,2.302,2.302,2.302h40.053c1.271,0,2.302-1.031,2.302-2.302v-27.162
					C170.344,215.405,169.313,214.374,168.042,214.374z"/>
				<path style="fill:#FFFFFF;" d="M215.206,214.374h-40.053c-1.271,0-2.302,1.031-2.302,2.302v27.162
					c0,1.271,1.03,2.302,2.302,2.302h40.053c1.271,0,2.303-1.031,2.303-2.302v-27.162
					C217.509,215.405,216.477,214.374,215.206,214.374z"/>
				<path style="fill:#FFFFFF;" d="M262.371,214.374h-40.052h-0.001c-0.874,0-1.634,0.487-2.023,1.205
					c-0.178,0.326-0.278,0.7-0.278,1.097v27.162c0,0.398,0.101,0.771,0.278,1.098c0.39,0.718,1.149,1.204,2.023,1.204h0.001h40.052
					c1.272,0,2.303-1.031,2.303-2.302v-27.162C264.674,215.405,263.643,214.374,262.371,214.374z"/>
				<path style="fill:#FFFFFF;" d="M309.536,214.374L309.536,214.374h-40.053c-1.272,0-2.302,1.031-2.302,2.302v27.162
					c0,1.271,1.03,2.302,2.302,2.302h40.053l0,0c1.271,0,2.303-1.031,2.303-2.302v-27.162
					C311.839,215.405,310.808,214.374,309.536,214.374z"/>
			</g>
		</g>
		<g style="clip-path:url(#SVGID_00000078758007213937243170000014852718239419058364_);">
			<path style="fill:#0A0909;" d="M-34.464,41.939v47.07h346.482v-47.07H-34.464z M-28.272,86.093c0,0.46-0.373,0.833-0.834,0.833
				h-3.177c-0.46,0-0.833-0.373-0.833-0.833V83.75c0-0.46,0.373-0.833,0.833-0.833h3.177c0.461,0,0.834,0.373,0.834,0.833V86.093z
				 M-28.272,47.033c0,0.461-0.373,0.834-0.834,0.834h-3.177c-0.46,0-0.833-0.373-0.833-0.834V44.69c0-0.46,0.373-0.833,0.833-0.833
				h3.177c0.461,0,0.834,0.373,0.834,0.833V47.033z M-20.88,86.093c0,0.46-0.372,0.833-0.832,0.833h-3.178
				c-0.459,0-0.833-0.373-0.833-0.833V83.75c0-0.46,0.374-0.833,0.833-0.833h3.178c0.46,0,0.832,0.373,0.832,0.833V86.093z
				 M-20.88,47.033c0,0.461-0.372,0.834-0.832,0.834h-3.178c-0.459,0-0.833-0.373-0.833-0.834V44.69c0-0.46,0.374-0.833,0.833-0.833
				h3.178c0.46,0,0.832,0.373,0.832,0.833V47.033z M-13.485,86.093c0,0.46-0.373,0.833-0.834,0.833h-3.176
				c-0.46,0-0.834-0.373-0.834-0.833V83.75c0-0.46,0.374-0.833,0.834-0.833h3.176c0.461,0,0.834,0.373,0.834,0.833V86.093z
				 M-13.485,47.033c0,0.461-0.373,0.834-0.834,0.834h-3.176c-0.46,0-0.834-0.373-0.834-0.834V44.69c0-0.46,0.374-0.833,0.834-0.833
				h3.176c0.461,0,0.834,0.373,0.834,0.833V47.033z M-6.092,86.093c0,0.46-0.373,0.833-0.833,0.833h-3.178
				c-0.459,0-0.832-0.373-0.832-0.833V83.75c0-0.46,0.373-0.833,0.832-0.833h3.178c0.46,0,0.833,0.373,0.833,0.833V86.093z
				 M-6.092,47.033c0,0.461-0.373,0.834-0.833,0.834h-3.178c-0.459,0-0.832-0.373-0.832-0.834V44.69c0-0.46,0.373-0.833,0.832-0.833
				h3.178c0.46,0,0.833,0.373,0.833,0.833V47.033z M1.302,86.093c0,0.46-0.373,0.833-0.833,0.833h-3.177
				c-0.46,0-0.834-0.373-0.834-0.833V83.75c0-0.46,0.374-0.833,0.834-0.833h3.177c0.46,0,0.833,0.373,0.833,0.833V86.093z
				 M1.302,47.033c0,0.461-0.373,0.834-0.833,0.834h-3.177c-0.46,0-0.834-0.373-0.834-0.834V44.69c0-0.46,0.374-0.833,0.834-0.833
				h3.177c0.46,0,0.833,0.373,0.833,0.833V47.033z M8.696,86.093c0,0.46-0.373,0.833-0.834,0.833H4.686
				c-0.46,0-0.833-0.373-0.833-0.833V83.75c0-0.46,0.373-0.833,0.833-0.833h3.177c0.461,0,0.834,0.373,0.834,0.833V86.093z
				 M8.696,47.033c0,0.461-0.373,0.834-0.834,0.834H4.686c-0.46,0-0.833-0.373-0.833-0.834V44.69c0-0.46,0.373-0.833,0.833-0.833
				h3.177c0.461,0,0.834,0.373,0.834,0.833V47.033z M16.089,86.093c0,0.46-0.372,0.833-0.833,0.833h-3.177
				c-0.459,0-0.833-0.373-0.833-0.833V83.75c0-0.46,0.374-0.833,0.833-0.833h3.177c0.461,0,0.833,0.373,0.833,0.833V86.093z
				 M16.089,47.033c0,0.461-0.372,0.834-0.833,0.834h-3.177c-0.459,0-0.833-0.373-0.833-0.834V44.69c0-0.46,0.374-0.833,0.833-0.833
				h3.177c0.461,0,0.833,0.373,0.833,0.833V47.033z M23.483,86.093c0,0.46-0.373,0.833-0.833,0.833h-3.177
				c-0.461,0-0.834-0.373-0.834-0.833V83.75c0-0.46,0.373-0.833,0.834-0.833h3.177c0.46,0,0.833,0.373,0.833,0.833V86.093z
				 M23.483,47.033c0,0.461-0.373,0.834-0.833,0.834h-3.177c-0.461,0-0.834-0.373-0.834-0.834V44.69c0-0.46,0.373-0.833,0.834-0.833
				h3.177c0.46,0,0.833,0.373,0.833,0.833V47.033z M30.877,86.093c0,0.46-0.372,0.833-0.833,0.833h-3.178
				c-0.459,0-0.832-0.373-0.832-0.833V83.75c0-0.46,0.373-0.833,0.832-0.833h3.178c0.461,0,0.833,0.373,0.833,0.833V86.093z
				 M30.877,47.033c0,0.461-0.372,0.834-0.833,0.834h-3.178c-0.459,0-0.832-0.373-0.832-0.834V44.69c0-0.46,0.373-0.833,0.832-0.833
				h3.178c0.461,0,0.833,0.373,0.833,0.833V47.033z M38.271,86.093c0,0.46-0.373,0.833-0.833,0.833h-3.177
				c-0.46,0-0.833-0.373-0.833-0.833V83.75c0-0.46,0.373-0.833,0.833-0.833h3.177c0.46,0,0.833,0.373,0.833,0.833V86.093z
				 M38.271,47.033c0,0.461-0.373,0.834-0.833,0.834h-3.177c-0.46,0-0.833-0.373-0.833-0.834V44.69c0-0.46,0.373-0.833,0.833-0.833
				h3.177c0.46,0,0.833,0.373,0.833,0.833V47.033z M45.664,86.093c0,0.46-0.372,0.833-0.833,0.833h-3.177
				c-0.46,0-0.833-0.373-0.833-0.833V83.75c0-0.46,0.373-0.833,0.833-0.833h3.177c0.461,0,0.833,0.373,0.833,0.833V86.093z
				 M45.664,47.033c0,0.461-0.372,0.834-0.833,0.834h-3.177c-0.46,0-0.833-0.373-0.833-0.834V44.69c0-0.46,0.373-0.833,0.833-0.833
				h3.177c0.461,0,0.833,0.373,0.833,0.833V47.033z M53.058,86.093c0,0.46-0.372,0.833-0.833,0.833h-3.177
				c-0.459,0-0.833-0.373-0.833-0.833V83.75c0-0.46,0.374-0.833,0.833-0.833h3.177c0.461,0,0.833,0.373,0.833,0.833V86.093z
				 M53.058,47.033c0,0.461-0.372,0.834-0.833,0.834h-3.177c-0.459,0-0.833-0.373-0.833-0.834V44.69c0-0.46,0.374-0.833,0.833-0.833
				h3.177c0.461,0,0.833,0.373,0.833,0.833V47.033z M60.452,86.093c0,0.46-0.373,0.833-0.833,0.833h-3.177
				c-0.46,0-0.834-0.373-0.834-0.833V83.75c0-0.46,0.374-0.833,0.834-0.833h3.177c0.46,0,0.833,0.373,0.833,0.833V86.093z
				 M60.452,47.033c0,0.461-0.373,0.834-0.833,0.834h-3.177c-0.46,0-0.834-0.373-0.834-0.834V44.69c0-0.46,0.374-0.833,0.834-0.833
				h3.177c0.46,0,0.833,0.373,0.833,0.833V47.033z M67.846,86.093c0,0.46-0.373,0.833-0.833,0.833h-3.178
				c-0.459,0-0.833-0.373-0.833-0.833V83.75c0-0.46,0.374-0.833,0.833-0.833h3.178c0.46,0,0.833,0.373,0.833,0.833V86.093z
				 M67.846,47.033c0,0.461-0.373,0.834-0.833,0.834h-3.178c-0.459,0-0.833-0.373-0.833-0.834V44.69c0-0.46,0.374-0.833,0.833-0.833
				h3.178c0.46,0,0.833,0.373,0.833,0.833V47.033z M75.239,86.093c0,0.46-0.372,0.833-0.833,0.833h-3.177
				c-0.46,0-0.833-0.373-0.833-0.833V83.75c0-0.46,0.373-0.833,0.833-0.833h3.177c0.461,0,0.833,0.373,0.833,0.833V86.093z
				 M75.239,47.033c0,0.461-0.372,0.834-0.833,0.834h-3.177c-0.46,0-0.833-0.373-0.833-0.834V44.69c0-0.46,0.373-0.833,0.833-0.833
				h3.177c0.461,0,0.833,0.373,0.833,0.833V47.033z M82.633,86.093c0,0.46-0.372,0.833-0.833,0.833h-3.177
				c-0.46,0-0.833-0.373-0.833-0.833V83.75c0-0.46,0.373-0.833,0.833-0.833H81.8c0.461,0,0.833,0.373,0.833,0.833V86.093z
				 M82.633,47.033c0,0.461-0.372,0.834-0.833,0.834h-3.177c-0.46,0-0.833-0.373-0.833-0.834V44.69c0-0.46,0.373-0.833,0.833-0.833
				H81.8c0.461,0,0.833,0.373,0.833,0.833V47.033z M90.026,86.093c0,0.46-0.372,0.833-0.832,0.833h-3.178
				c-0.46,0-0.833-0.373-0.833-0.833V83.75c0-0.46,0.373-0.833,0.833-0.833h3.178c0.46,0,0.832,0.373,0.832,0.833V86.093z
				 M90.026,47.033c0,0.461-0.372,0.834-0.832,0.834h-3.178c-0.46,0-0.833-0.373-0.833-0.834V44.69c0-0.46,0.373-0.833,0.833-0.833
				h3.178c0.46,0,0.832,0.373,0.832,0.833V47.033z M97.421,86.093c0,0.46-0.373,0.833-0.834,0.833H93.41
				c-0.459,0-0.833-0.373-0.833-0.833V83.75c0-0.46,0.374-0.833,0.833-0.833h3.177c0.461,0,0.834,0.373,0.834,0.833V86.093z
				 M97.421,47.033c0,0.461-0.373,0.834-0.834,0.834H93.41c-0.459,0-0.833-0.373-0.833-0.834V44.69c0-0.46,0.374-0.833,0.833-0.833
				h3.177c0.461,0,0.834,0.373,0.834,0.833V47.033z M104.814,86.093c0,0.46-0.373,0.833-0.833,0.833h-3.178
				c-0.459,0-0.832-0.373-0.832-0.833V83.75c0-0.46,0.373-0.833,0.832-0.833h3.178c0.46,0,0.833,0.373,0.833,0.833V86.093z
				 M104.814,47.033c0,0.461-0.373,0.834-0.833,0.834h-3.178c-0.459,0-0.832-0.373-0.832-0.834V44.69
				c0-0.46,0.373-0.833,0.832-0.833h3.178c0.46,0,0.833,0.373,0.833,0.833V47.033z M112.208,86.093c0,0.46-0.373,0.833-0.833,0.833
				h-3.177c-0.46,0-0.834-0.373-0.834-0.833V83.75c0-0.46,0.374-0.833,0.834-0.833h3.177c0.46,0,0.833,0.373,0.833,0.833V86.093z
				 M112.208,47.033c0,0.461-0.373,0.834-0.833,0.834h-3.177c-0.46,0-0.834-0.373-0.834-0.834V44.69c0-0.46,0.374-0.833,0.834-0.833
				h3.177c0.46,0,0.833,0.373,0.833,0.833V47.033z M119.602,86.093c0,0.46-0.372,0.833-0.833,0.833h-3.177
				c-0.46,0-0.833-0.373-0.833-0.833V83.75c0-0.46,0.373-0.833,0.833-0.833h3.177c0.461,0,0.833,0.373,0.833,0.833V86.093z
				 M119.602,47.033c0,0.461-0.372,0.834-0.833,0.834h-3.177c-0.46,0-0.833-0.373-0.833-0.834V44.69c0-0.46,0.373-0.833,0.833-0.833
				h3.177c0.461,0,0.833,0.373,0.833,0.833V47.033z M126.995,86.093c0,0.46-0.372,0.833-0.832,0.833h-3.178
				c-0.459,0-0.833-0.373-0.833-0.833V83.75c0-0.46,0.374-0.833,0.833-0.833h3.178c0.46,0,0.832,0.373,0.832,0.833V86.093z
				 M126.995,47.033c0,0.461-0.372,0.834-0.832,0.834h-3.178c-0.459,0-0.833-0.373-0.833-0.834V44.69
				c0-0.46,0.374-0.833,0.833-0.833h3.178c0.46,0,0.832,0.373,0.832,0.833V47.033z M134.39,86.093c0,0.46-0.373,0.833-0.834,0.833
				h-3.177c-0.46,0-0.833-0.373-0.833-0.833V83.75c0-0.46,0.373-0.833,0.833-0.833h3.177c0.461,0,0.834,0.373,0.834,0.833V86.093z
				 M134.39,47.033c0,0.461-0.373,0.834-0.834,0.834h-3.177c-0.46,0-0.833-0.373-0.833-0.834V44.69c0-0.46,0.373-0.833,0.833-0.833
				h3.177c0.461,0,0.834,0.373,0.834,0.833V47.033z M141.783,86.093c0,0.46-0.372,0.833-0.833,0.833h-3.178
				c-0.459,0-0.832-0.373-0.832-0.833V83.75c0-0.46,0.373-0.833,0.832-0.833h3.178c0.461,0,0.833,0.373,0.833,0.833V86.093z
				 M141.783,47.033c0,0.461-0.372,0.834-0.833,0.834h-3.178c-0.459,0-0.832-0.373-0.832-0.834V44.69
				c0-0.46,0.373-0.833,0.832-0.833h3.178c0.461,0,0.833,0.373,0.833,0.833V47.033z M149.177,86.093c0,0.46-0.373,0.833-0.833,0.833
				h-3.177c-0.46,0-0.834-0.373-0.834-0.833V83.75c0-0.46,0.374-0.833,0.834-0.833h3.177c0.46,0,0.833,0.373,0.833,0.833V86.093z
				 M149.177,47.033c0,0.461-0.373,0.834-0.833,0.834h-3.177c-0.46,0-0.834-0.373-0.834-0.834V44.69c0-0.46,0.374-0.833,0.834-0.833
				h3.177c0.46,0,0.833,0.373,0.833,0.833V47.033z M156.57,86.093c0,0.46-0.372,0.833-0.833,0.833h-3.177
				c-0.46,0-0.833-0.373-0.833-0.833V83.75c0-0.46,0.373-0.833,0.833-0.833h3.177c0.461,0,0.833,0.373,0.833,0.833V86.093z
				 M156.57,47.033c0,0.461-0.372,0.834-0.833,0.834h-3.177c-0.46,0-0.833-0.373-0.833-0.834V44.69c0-0.46,0.373-0.833,0.833-0.833
				h3.177c0.461,0,0.833,0.373,0.833,0.833V47.033z M163.964,86.093c0,0.46-0.372,0.833-0.832,0.833h-3.178
				c-0.459,0-0.833-0.373-0.833-0.833V83.75c0-0.46,0.374-0.833,0.833-0.833h3.178c0.46,0,0.832,0.373,0.832,0.833V86.093z
				 M163.964,47.033c0,0.461-0.372,0.834-0.832,0.834h-3.178c-0.459,0-0.833-0.373-0.833-0.834V44.69
				c0-0.46,0.374-0.833,0.833-0.833h3.178c0.46,0,0.832,0.373,0.832,0.833V47.033z M171.358,86.093c0,0.46-0.373,0.833-0.834,0.833
				h-3.177c-0.46,0-0.833-0.373-0.833-0.833V83.75c0-0.46,0.373-0.833,0.833-0.833h3.177c0.461,0,0.834,0.373,0.834,0.833V86.093z
				 M171.358,47.033c0,0.461-0.373,0.834-0.834,0.834h-3.177c-0.46,0-0.833-0.373-0.833-0.834V44.69c0-0.46,0.373-0.833,0.833-0.833
				h3.177c0.461,0,0.834,0.373,0.834,0.833V47.033z M178.752,86.093c0,0.46-0.373,0.833-0.833,0.833h-3.178
				c-0.459,0-0.832-0.373-0.832-0.833V83.75c0-0.46,0.373-0.833,0.832-0.833h3.178c0.46,0,0.833,0.373,0.833,0.833V86.093z
				 M178.752,47.033c0,0.461-0.373,0.834-0.833,0.834h-3.178c-0.459,0-0.832-0.373-0.832-0.834V44.69
				c0-0.46,0.373-0.833,0.832-0.833h3.178c0.46,0,0.833,0.373,0.833,0.833V47.033z M186.145,86.093c0,0.46-0.373,0.833-0.833,0.833
				h-3.177c-0.46,0-0.834-0.373-0.834-0.833V83.75c0-0.46,0.374-0.833,0.834-0.833h3.177c0.46,0,0.833,0.373,0.833,0.833V86.093z
				 M186.145,47.033c0,0.461-0.373,0.834-0.833,0.834h-3.177c-0.46,0-0.834-0.373-0.834-0.834V44.69c0-0.46,0.374-0.833,0.834-0.833
				h3.177c0.46,0,0.833,0.373,0.833,0.833V47.033z M193.54,86.093c0,0.46-0.373,0.833-0.834,0.833h-3.177
				c-0.46,0-0.833-0.373-0.833-0.833V83.75c0-0.46,0.373-0.833,0.833-0.833h3.177c0.461,0,0.834,0.373,0.834,0.833V86.093z
				 M193.54,47.033c0,0.461-0.373,0.834-0.834,0.834h-3.177c-0.46,0-0.833-0.373-0.833-0.834V44.69c0-0.46,0.373-0.833,0.833-0.833
				h3.177c0.461,0,0.834,0.373,0.834,0.833V47.033z M200.933,86.093c0,0.46-0.373,0.833-0.832,0.833h-3.178
				c-0.46,0-0.833-0.373-0.833-0.833V83.75c0-0.46,0.373-0.833,0.833-0.833h3.178c0.459,0,0.832,0.373,0.832,0.833V86.093z
				 M200.933,47.033c0,0.461-0.373,0.834-0.832,0.834h-3.178c-0.46,0-0.833-0.373-0.833-0.834V44.69c0-0.46,0.373-0.833,0.833-0.833
				h3.178c0.459,0,0.832,0.373,0.832,0.833V47.033z M208.327,86.093c0,0.46-0.373,0.833-0.834,0.833h-3.176
				c-0.461,0-0.834-0.373-0.834-0.833V83.75c0-0.46,0.373-0.833,0.834-0.833h3.176c0.461,0,0.834,0.373,0.834,0.833V86.093z
				 M208.327,47.033c0,0.461-0.373,0.834-0.834,0.834h-3.176c-0.461,0-0.834-0.373-0.834-0.834V44.69
				c0-0.46,0.373-0.833,0.834-0.833h3.176c0.461,0,0.834,0.373,0.834,0.833V47.033z M215.721,86.093c0,0.46-0.373,0.833-0.833,0.833
				h-3.178c-0.459,0-0.832-0.373-0.832-0.833V83.75c0-0.46,0.373-0.833,0.832-0.833h3.178c0.46,0,0.833,0.373,0.833,0.833V86.093z
				 M215.721,47.033c0,0.461-0.373,0.834-0.833,0.834h-3.178c-0.459,0-0.832-0.373-0.832-0.834V44.69
				c0-0.46,0.373-0.833,0.832-0.833h3.178c0.46,0,0.833,0.373,0.833,0.833V47.033z M223.114,86.093c0,0.46-0.373,0.833-0.833,0.833
				h-3.177c-0.461,0-0.834-0.373-0.834-0.833V83.75c0-0.46,0.373-0.833,0.834-0.833h3.177c0.46,0,0.833,0.373,0.833,0.833V86.093z
				 M223.114,47.033c0,0.461-0.373,0.834-0.833,0.834h-3.177c-0.461,0-0.834-0.373-0.834-0.834V44.69
				c0-0.46,0.373-0.833,0.834-0.833h3.177c0.46,0,0.833,0.373,0.833,0.833V47.033z M230.508,86.093c0,0.46-0.372,0.833-0.833,0.833
				h-3.177c-0.46,0-0.833-0.373-0.833-0.833V83.75c0-0.46,0.373-0.833,0.833-0.833h3.177c0.461,0,0.833,0.373,0.833,0.833V86.093z
				 M230.508,47.033c0,0.461-0.372,0.834-0.833,0.834h-3.177c-0.46,0-0.833-0.373-0.833-0.834V44.69c0-0.46,0.373-0.833,0.833-0.833
				h3.177c0.461,0,0.833,0.373,0.833,0.833V47.033z M237.901,86.093c0,0.46-0.372,0.833-0.833,0.833h-3.177
				c-0.459,0-0.833-0.373-0.833-0.833V83.75c0-0.46,0.374-0.833,0.833-0.833h3.177c0.461,0,0.833,0.373,0.833,0.833V86.093z
				 M237.901,47.033c0,0.461-0.372,0.834-0.833,0.834h-3.177c-0.459,0-0.833-0.373-0.833-0.834V44.69
				c0-0.46,0.374-0.833,0.833-0.833h3.177c0.461,0,0.833,0.373,0.833,0.833V47.033z M245.296,86.093c0,0.46-0.373,0.833-0.834,0.833
				h-3.177c-0.46,0-0.833-0.373-0.833-0.833V83.75c0-0.46,0.373-0.833,0.833-0.833h3.177c0.461,0,0.834,0.373,0.834,0.833V86.093z
				 M245.296,47.033c0,0.461-0.373,0.834-0.834,0.834h-3.177c-0.46,0-0.833-0.373-0.833-0.834V44.69c0-0.46,0.373-0.833,0.833-0.833
				h3.177c0.461,0,0.834,0.373,0.834,0.833V47.033z M252.688,86.093c0,0.46-0.372,0.833-0.832,0.833h-3.178
				c-0.459,0-0.833-0.373-0.833-0.833V83.75c0-0.46,0.374-0.833,0.833-0.833h3.178c0.46,0,0.832,0.373,0.832,0.833V86.093z
				 M252.688,47.033c0,0.461-0.372,0.834-0.832,0.834h-3.178c-0.459,0-0.833-0.373-0.833-0.834V44.69
				c0-0.46,0.374-0.833,0.833-0.833h3.178c0.46,0,0.832,0.373,0.832,0.833V47.033z M260.083,86.093c0,0.46-0.373,0.833-0.833,0.833
				h-3.177c-0.46,0-0.834-0.373-0.834-0.833V83.75c0-0.46,0.374-0.833,0.834-0.833h3.177c0.46,0,0.833,0.373,0.833,0.833V86.093z
				 M260.083,47.033c0,0.461-0.373,0.834-0.833,0.834h-3.177c-0.46,0-0.834-0.373-0.834-0.834V44.69c0-0.46,0.374-0.833,0.834-0.833
				h3.177c0.46,0,0.833,0.373,0.833,0.833V47.033z M267.477,86.093c0,0.46-0.372,0.833-0.833,0.833h-3.177
				c-0.46,0-0.833-0.373-0.833-0.833V83.75c0-0.46,0.373-0.833,0.833-0.833h3.177c0.461,0,0.833,0.373,0.833,0.833V86.093z
				 M267.477,47.033c0,0.461-0.372,0.834-0.833,0.834h-3.177c-0.46,0-0.833-0.373-0.833-0.834V44.69c0-0.46,0.373-0.833,0.833-0.833
				h3.177c0.461,0,0.833,0.373,0.833,0.833V47.033z M274.87,86.093c0,0.46-0.372,0.833-0.833,0.833h-3.177
				c-0.46,0-0.833-0.373-0.833-0.833V83.75c0-0.46,0.373-0.833,0.833-0.833h3.177c0.461,0,0.833,0.373,0.833,0.833V86.093z
				 M274.87,47.033c0,0.461-0.372,0.834-0.833,0.834h-3.177c-0.46,0-0.833-0.373-0.833-0.834V44.69c0-0.46,0.373-0.833,0.833-0.833
				h3.177c0.461,0,0.833,0.373,0.833,0.833V47.033z M282.265,86.093c0,0.46-0.373,0.833-0.834,0.833h-3.177
				c-0.46,0-0.833-0.373-0.833-0.833V83.75c0-0.46,0.373-0.833,0.833-0.833h3.177c0.461,0,0.834,0.373,0.834,0.833V86.093z
				 M282.265,47.033c0,0.461-0.373,0.834-0.834,0.834h-3.177c-0.46,0-0.833-0.373-0.833-0.834V44.69c0-0.46,0.373-0.833,0.833-0.833
				h3.177c0.461,0,0.834,0.373,0.834,0.833V47.033z M289.657,86.093c0,0.46-0.372,0.833-0.832,0.833h-3.178
				c-0.459,0-0.833-0.373-0.833-0.833V83.75c0-0.46,0.374-0.833,0.833-0.833h3.178c0.46,0,0.832,0.373,0.832,0.833V86.093z
				 M289.657,47.033c0,0.461-0.372,0.834-0.832,0.834h-3.178c-0.459,0-0.833-0.373-0.833-0.834V44.69
				c0-0.46,0.374-0.833,0.833-0.833h3.178c0.46,0,0.832,0.373,0.832,0.833V47.033z M297.052,86.093c0,0.46-0.373,0.833-0.833,0.833
				h-3.177c-0.46,0-0.834-0.373-0.834-0.833V83.75c0-0.46,0.374-0.833,0.834-0.833h3.177c0.46,0,0.833,0.373,0.833,0.833V86.093z
				 M297.052,47.033c0,0.461-0.373,0.834-0.833,0.834h-3.177c-0.46,0-0.834-0.373-0.834-0.834V44.69c0-0.46,0.374-0.833,0.834-0.833
				h3.177c0.46,0,0.833,0.373,0.833,0.833V47.033z M304.445,86.093c0,0.46-0.372,0.833-0.833,0.833h-3.178
				c-0.459,0-0.832-0.373-0.832-0.833V83.75c0-0.46,0.373-0.833,0.832-0.833h3.178c0.461,0,0.833,0.373,0.833,0.833V86.093z
				 M304.445,47.033c0,0.461-0.372,0.834-0.833,0.834h-3.178c-0.459,0-0.832-0.373-0.832-0.834V44.69
				c0-0.46,0.373-0.833,0.832-0.833h3.178c0.461,0,0.833,0.373,0.833,0.833V47.033z M311.839,86.093c0,0.46-0.373,0.833-0.833,0.833
				h-3.177c-0.46,0-0.833-0.373-0.833-0.833V83.75c0-0.46,0.373-0.833,0.833-0.833h3.177c0.46,0,0.833,0.373,0.833,0.833V86.093z
				 M311.839,47.033c0,0.461-0.373,0.834-0.833,0.834h-3.177c-0.46,0-0.833-0.373-0.833-0.834V44.69c0-0.46,0.373-0.833,0.833-0.833
				h3.177c0.46,0,0.833,0.373,0.833,0.833V47.033z"/>
			<g>
				<path style="fill:#545454;" d="M-20.617,49.707h-13.847v31.766h13.847c1.271,0,2.302-1.031,2.302-2.302V52.009
					C-18.315,50.739-19.346,49.707-20.617,49.707z"/>
				<path style="fill:#545454;" d="M26.548,49.707h-40.053c-1.271,0-2.302,1.031-2.302,2.302v27.162c0,1.271,1.03,2.302,2.302,2.302
					h40.053c1.27,0,2.302-1.031,2.302-2.302V52.009C28.85,50.739,27.818,49.707,26.548,49.707z"/>
				<path style="fill:#545454;" d="M73.712,49.707H33.659c-1.271,0-2.302,1.031-2.302,2.302v27.162c0,1.271,1.03,2.302,2.302,2.302
					h40.053c1.271,0,2.303-1.031,2.303-2.302V52.009C76.015,50.739,74.983,49.707,73.712,49.707z"/>
				<path style="fill:#545454;" d="M120.877,49.707H80.824c-1.271,0-2.302,1.031-2.302,2.302v27.162c0,1.271,1.03,2.302,2.302,2.302
					h40.053c1.271,0,2.302-1.031,2.302-2.302V52.009C123.179,50.739,122.148,49.707,120.877,49.707z"/>
				<path style="fill:#545454;" d="M168.042,49.707h-40.053c-1.271,0-2.302,1.031-2.302,2.302v27.162
					c0,1.271,1.03,2.302,2.302,2.302h40.053c1.271,0,2.302-1.031,2.302-2.302V52.009C170.344,50.739,169.313,49.707,168.042,49.707z
					"/>
				<path style="fill:#545454;" d="M215.206,49.707h-40.053c-1.271,0-2.302,1.031-2.302,2.302v27.162
					c0,1.271,1.03,2.302,2.302,2.302h40.053c1.271,0,2.303-1.031,2.303-2.302V52.009C217.509,50.739,216.477,49.707,215.206,49.707z
					"/>
				<path style="fill:#545454;" d="M262.371,49.707h-40.052h-0.001c-0.874,0-1.634,0.487-2.023,1.205
					c-0.178,0.326-0.278,0.7-0.278,1.097v27.162c0,0.398,0.101,0.771,0.278,1.098c0.39,0.718,1.149,1.204,2.023,1.204h0.001h40.052
					c1.272,0,2.303-1.031,2.303-2.302V52.009C264.674,50.739,263.643,49.707,262.371,49.707z"/>
				<path style="fill:#545454;" d="M309.536,49.707L309.536,49.707h-40.053c-1.272,0-2.302,1.031-2.302,2.302v27.162
					c0,1.271,1.03,2.302,2.302,2.302h40.053l0,0c1.271,0,2.303-1.031,2.303-2.302V52.009
					C311.839,50.739,310.808,49.707,309.536,49.707z"/>
			</g>
		</g>
		<g style="clip-path:url(#SVGID_00000078758007213937243170000014852718239419058364_);">
			<path style="fill:#0A0909;" d="M308.554,111.474h3.464v-2.869H-34.464v2.907c0.064-0.01,0.123-0.039,0.191-0.039h4.751
				c0.688,0,1.246,0.558,1.246,1.246v3.504c0,0.689-0.558,1.247-1.246,1.247h-4.751c-0.068,0-0.127-0.028-0.191-0.039v52.504
				c0.064-0.01,0.123-0.038,0.191-0.038h4.751c0.688,0,1.246,0.558,1.246,1.246v3.504c0,0.688-0.558,1.246-1.246,1.246h-4.751
				c-0.068,0-0.127-0.028-0.191-0.039v3.154h346.482v-3.116h-3.464c-0.688,0-1.245-0.558-1.245-1.246v-3.504
				c0-0.688,0.558-1.246,1.245-1.246h3.464v-52.427h-3.464c-0.688,0-1.245-0.558-1.245-1.247v-3.504
				C307.309,112.032,307.866,111.474,308.554,111.474z M-17.216,174.647c0,0.688-0.558,1.246-1.246,1.246h-4.752
				c-0.688,0-1.246-0.558-1.246-1.246v-3.504c0-0.688,0.558-1.246,1.246-1.246h4.752c0.688,0,1.246,0.558,1.246,1.246V174.647z
				 M-17.216,116.224c0,0.689-0.558,1.247-1.246,1.247h-4.752c-0.688,0-1.246-0.558-1.246-1.247v-3.504
				c0-0.688,0.558-1.246,1.246-1.246h4.752c0.688,0,1.246,0.558,1.246,1.246V116.224z M-6.157,174.647
				c0,0.688-0.557,1.246-1.246,1.246h-4.752c-0.686,0-1.246-0.558-1.246-1.246v-3.504c0-0.688,0.56-1.246,1.246-1.246h4.752
				c0.689,0,1.246,0.558,1.246,1.246V174.647z M-6.157,116.224c0,0.689-0.557,1.247-1.246,1.247h-4.752
				c-0.686,0-1.246-0.558-1.246-1.247v-3.504c0-0.688,0.56-1.246,1.246-1.246h4.752c0.689,0,1.246,0.558,1.246,1.246V116.224z
				 M4.902,174.647c0,0.688-0.558,1.246-1.246,1.246h-4.753c-0.687,0-1.245-0.558-1.245-1.246v-3.504
				c0-0.688,0.558-1.246,1.245-1.246h4.753c0.689,0,1.246,0.558,1.246,1.246V174.647z M4.902,116.224
				c0,0.689-0.558,1.247-1.246,1.247h-4.753c-0.687,0-1.245-0.558-1.245-1.247v-3.504c0-0.688,0.558-1.246,1.245-1.246h4.753
				c0.689,0,1.246,0.558,1.246,1.246V116.224z M15.961,174.647c0,0.688-0.558,1.246-1.246,1.246H9.962
				c-0.687,0-1.245-0.558-1.245-1.246v-3.504c0-0.688,0.559-1.246,1.245-1.246h4.753c0.688,0,1.246,0.558,1.246,1.246V174.647z
				 M15.961,116.224c0,0.689-0.558,1.247-1.246,1.247H9.962c-0.687,0-1.245-0.558-1.245-1.247v-3.504
				c0-0.688,0.559-1.246,1.245-1.246h4.753c0.688,0,1.246,0.558,1.246,1.246V116.224z M27.02,174.647
				c0,0.688-0.558,1.246-1.246,1.246h-4.751c-0.688,0-1.246-0.558-1.246-1.246v-3.504c0-0.688,0.558-1.246,1.246-1.246h4.751
				c0.688,0,1.246,0.558,1.246,1.246V174.647z M27.02,116.224c0,0.689-0.558,1.247-1.246,1.247h-4.751
				c-0.688,0-1.246-0.558-1.246-1.247v-3.504c0-0.688,0.558-1.246,1.246-1.246h4.751c0.688,0,1.246,0.558,1.246,1.246V116.224z
				 M38.079,174.647c0,0.688-0.558,1.246-1.246,1.246h-4.752c-0.687,0-1.246-0.558-1.246-1.246v-3.504
				c0-0.688,0.559-1.246,1.246-1.246h4.752c0.688,0,1.246,0.558,1.246,1.246V174.647z M38.079,116.224
				c0,0.689-0.558,1.247-1.246,1.247h-4.752c-0.687,0-1.246-0.558-1.246-1.247v-3.504c0-0.688,0.559-1.246,1.246-1.246h4.752
				c0.688,0,1.246,0.558,1.246,1.246V116.224z M49.138,174.647c0,0.688-0.558,1.246-1.246,1.246H43.14
				c-0.688,0-1.246-0.558-1.246-1.246v-3.504c0-0.688,0.559-1.246,1.246-1.246h4.752c0.688,0,1.246,0.558,1.246,1.246V174.647z
				 M49.138,116.224c0,0.689-0.558,1.247-1.246,1.247H43.14c-0.688,0-1.246-0.558-1.246-1.247v-3.504
				c0-0.688,0.559-1.246,1.246-1.246h4.752c0.688,0,1.246,0.558,1.246,1.246V116.224z M60.196,174.647
				c0,0.688-0.557,1.246-1.245,1.246h-4.753c-0.688,0-1.246-0.558-1.246-1.246v-3.504c0-0.688,0.559-1.246,1.246-1.246h4.753
				c0.688,0,1.245,0.558,1.245,1.246V174.647z M60.196,116.224c0,0.689-0.557,1.247-1.245,1.247h-4.753
				c-0.688,0-1.246-0.558-1.246-1.247v-3.504c0-0.688,0.559-1.246,1.246-1.246h4.753c0.688,0,1.245,0.558,1.245,1.246V116.224z
				 M71.255,174.647c0,0.688-0.558,1.246-1.245,1.246h-4.752c-0.688,0-1.247-0.558-1.247-1.246v-3.504
				c0-0.688,0.56-1.246,1.247-1.246h4.752c0.687,0,1.245,0.558,1.245,1.246V174.647z M71.255,116.224
				c0,0.689-0.558,1.247-1.245,1.247h-4.752c-0.688,0-1.247-0.558-1.247-1.247v-3.504c0-0.688,0.56-1.246,1.247-1.246h4.752
				c0.687,0,1.245,0.558,1.245,1.246V116.224z M82.314,174.647c0,0.688-0.558,1.246-1.246,1.246h-4.752
				c-0.688,0-1.245-0.558-1.245-1.246v-3.504c0-0.688,0.558-1.246,1.245-1.246h4.752c0.689,0,1.246,0.558,1.246,1.246V174.647z
				 M82.314,116.224c0,0.689-0.558,1.247-1.246,1.247h-4.752c-0.688,0-1.245-0.558-1.245-1.247v-3.504
				c0-0.688,0.558-1.246,1.245-1.246h4.752c0.689,0,1.246,0.558,1.246,1.246V116.224z M93.374,174.647
				c0,0.688-0.558,1.246-1.246,1.246h-4.752c-0.688,0-1.246-0.558-1.246-1.246v-3.504c0-0.688,0.559-1.246,1.246-1.246h4.752
				c0.688,0,1.246,0.558,1.246,1.246V174.647z M93.374,116.224c0,0.689-0.558,1.247-1.246,1.247h-4.752
				c-0.688,0-1.246-0.558-1.246-1.247v-3.504c0-0.688,0.559-1.246,1.246-1.246h4.752c0.688,0,1.246,0.558,1.246,1.246V116.224z
				 M104.433,174.647c0,0.688-0.558,1.246-1.246,1.246h-4.752c-0.688,0-1.246-0.558-1.246-1.246v-3.504
				c0-0.688,0.559-1.246,1.246-1.246h4.752c0.688,0,1.246,0.558,1.246,1.246V174.647z M104.433,116.224
				c0,0.689-0.558,1.247-1.246,1.247h-4.752c-0.688,0-1.246-0.558-1.246-1.247v-3.504c0-0.688,0.559-1.246,1.246-1.246h4.752
				c0.688,0,1.246,0.558,1.246,1.246V116.224z M115.491,174.647c0,0.688-0.558,1.246-1.246,1.246h-4.752
				c-0.688,0-1.246-0.558-1.246-1.246v-3.504c0-0.688,0.559-1.246,1.246-1.246h4.752c0.688,0,1.246,0.558,1.246,1.246V174.647z
				 M115.491,116.224c0,0.689-0.558,1.247-1.246,1.247h-4.752c-0.688,0-1.246-0.558-1.246-1.247v-3.504
				c0-0.688,0.559-1.246,1.246-1.246h4.752c0.688,0,1.246,0.558,1.246,1.246V116.224z M126.55,174.647
				c0,0.688-0.557,1.246-1.246,1.246h-4.752c-0.688,0-1.246-0.558-1.246-1.246v-3.504c0-0.688,0.559-1.246,1.246-1.246h4.752
				c0.689,0,1.246,0.558,1.246,1.246V174.647z M126.55,116.224c0,0.689-0.557,1.247-1.246,1.247h-4.752
				c-0.688,0-1.246-0.558-1.246-1.247v-3.504c0-0.688,0.559-1.246,1.246-1.246h4.752c0.689,0,1.246,0.558,1.246,1.246V116.224z
				 M137.609,174.647c0,0.688-0.558,1.246-1.247,1.246h-4.751c-0.688,0-1.246-0.558-1.246-1.246v-3.504
				c0-0.688,0.558-1.246,1.246-1.246h4.751c0.689,0,1.247,0.558,1.247,1.246V174.647z M137.609,116.224
				c0,0.689-0.558,1.247-1.247,1.247h-4.751c-0.688,0-1.246-0.558-1.246-1.247v-3.504c0-0.688,0.558-1.246,1.246-1.246h4.751
				c0.689,0,1.247,0.558,1.247,1.246V116.224z M148.669,174.647c0,0.688-0.559,1.246-1.246,1.246h-4.753
				c-0.688,0-1.245-0.558-1.245-1.246v-3.504c0-0.688,0.558-1.246,1.245-1.246h4.753c0.688,0,1.246,0.558,1.246,1.246V174.647z
				 M148.669,116.224c0,0.689-0.559,1.247-1.246,1.247h-4.753c-0.688,0-1.245-0.558-1.245-1.247v-3.504
				c0-0.688,0.558-1.246,1.245-1.246h4.753c0.688,0,1.246,0.558,1.246,1.246V116.224z M159.727,174.647
				c0,0.688-0.558,1.246-1.246,1.246h-4.752c-0.688,0-1.246-0.558-1.246-1.246v-3.504c0-0.688,0.559-1.246,1.246-1.246h4.752
				c0.689,0,1.246,0.558,1.246,1.246V174.647z M159.727,116.224c0,0.689-0.558,1.247-1.246,1.247h-4.752
				c-0.688,0-1.246-0.558-1.246-1.247v-3.504c0-0.688,0.559-1.246,1.246-1.246h4.752c0.689,0,1.246,0.558,1.246,1.246V116.224z
				 M170.786,174.647c0,0.688-0.558,1.246-1.246,1.246h-4.752c-0.688,0-1.246-0.558-1.246-1.246v-3.504
				c0-0.688,0.559-1.246,1.246-1.246h4.752c0.689,0,1.246,0.558,1.246,1.246V174.647z M170.786,116.224
				c0,0.689-0.558,1.247-1.246,1.247h-4.752c-0.688,0-1.246-0.558-1.246-1.247v-3.504c0-0.688,0.559-1.246,1.246-1.246h4.752
				c0.689,0,1.246,0.558,1.246,1.246V116.224z M181.845,174.647c0,0.688-0.557,1.246-1.246,1.246h-4.752
				c-0.688,0-1.246-0.558-1.246-1.246v-3.504c0-0.688,0.559-1.246,1.246-1.246h4.752c0.689,0,1.246,0.558,1.246,1.246V174.647z
				 M181.845,116.224c0,0.689-0.557,1.247-1.246,1.247h-4.752c-0.688,0-1.246-0.558-1.246-1.247v-3.504
				c0-0.688,0.559-1.246,1.246-1.246h4.752c0.689,0,1.246,0.558,1.246,1.246V116.224z M192.903,174.647
				c0,0.688-0.557,1.246-1.246,1.246h-4.751c-0.688,0-1.247-0.558-1.247-1.246v-3.504c0-0.688,0.559-1.246,1.247-1.246h4.751
				c0.689,0,1.246,0.558,1.246,1.246V174.647z M192.903,116.224c0,0.689-0.557,1.247-1.246,1.247h-4.751
				c-0.688,0-1.247-0.558-1.247-1.247v-3.504c0-0.688,0.559-1.246,1.247-1.246h4.751c0.689,0,1.246,0.558,1.246,1.246V116.224z
				 M203.962,174.647c0,0.688-0.557,1.246-1.246,1.246h-4.751c-0.688,0-1.246-0.558-1.246-1.246v-3.504
				c0-0.688,0.559-1.246,1.246-1.246h4.751c0.689,0,1.246,0.558,1.246,1.246V174.647z M203.962,116.224
				c0,0.689-0.557,1.247-1.246,1.247h-4.751c-0.688,0-1.246-0.558-1.246-1.247v-3.504c0-0.688,0.559-1.246,1.246-1.246h4.751
				c0.689,0,1.246,0.558,1.246,1.246V116.224z M215.021,174.647c0,0.688-0.558,1.246-1.245,1.246h-4.753
				c-0.686,0-1.246-0.558-1.246-1.246v-3.504c0-0.688,0.56-1.246,1.246-1.246h4.753c0.688,0,1.245,0.558,1.245,1.246V174.647z
				 M215.021,116.224c0,0.689-0.558,1.247-1.245,1.247h-4.753c-0.686,0-1.246-0.558-1.246-1.247v-3.504
				c0-0.688,0.56-1.246,1.246-1.246h4.753c0.688,0,1.245,0.558,1.245,1.246V116.224z M226.08,174.647
				c0,0.688-0.558,1.246-1.245,1.246h-4.753c-0.687,0-1.246-0.558-1.246-1.246v-3.504c0-0.688,0.56-1.246,1.246-1.246h4.753
				c0.688,0,1.245,0.558,1.245,1.246V174.647z M226.08,116.224c0,0.689-0.558,1.247-1.245,1.247h-4.753
				c-0.687,0-1.246-0.558-1.246-1.247v-3.504c0-0.688,0.56-1.246,1.246-1.246h4.753c0.688,0,1.245,0.558,1.245,1.246V116.224z
				 M237.14,174.647c0,0.688-0.557,1.246-1.246,1.246h-4.752c-0.688,0-1.246-0.558-1.246-1.246v-3.504
				c0-0.688,0.559-1.246,1.246-1.246h4.752c0.689,0,1.246,0.558,1.246,1.246V174.647z M237.14,116.224
				c0,0.689-0.557,1.247-1.246,1.247h-4.752c-0.688,0-1.246-0.558-1.246-1.247v-3.504c0-0.688,0.559-1.246,1.246-1.246h4.752
				c0.689,0,1.246,0.558,1.246,1.246V116.224z M248.198,174.647c0,0.688-0.557,1.246-1.246,1.246h-4.751
				c-0.689,0-1.247-0.558-1.247-1.246v-3.504c0-0.688,0.559-1.246,1.247-1.246h4.751c0.689,0,1.246,0.558,1.246,1.246V174.647z
				 M248.198,116.224c0,0.689-0.557,1.247-1.246,1.247h-4.751c-0.689,0-1.247-0.558-1.247-1.247v-3.504
				c0-0.688,0.559-1.246,1.247-1.246h4.751c0.689,0,1.246,0.558,1.246,1.246V116.224z M259.258,174.647
				c0,0.688-0.558,1.246-1.247,1.246h-4.751c-0.689,0-1.246-0.558-1.246-1.246v-3.504c0-0.688,0.558-1.246,1.246-1.246h4.751
				c0.689,0,1.247,0.558,1.247,1.246V174.647z M259.258,116.224c0,0.689-0.558,1.247-1.247,1.247h-4.751
				c-0.689,0-1.246-0.558-1.246-1.247v-3.504c0-0.688,0.558-1.246,1.246-1.246h4.751c0.689,0,1.247,0.558,1.247,1.246V116.224z
				 M270.316,174.647c0,0.688-0.558,1.246-1.246,1.246h-4.752c-0.688,0-1.246-0.558-1.246-1.246v-3.504
				c0-0.688,0.559-1.246,1.246-1.246h4.752c0.689,0,1.246,0.558,1.246,1.246V174.647z M270.316,116.224
				c0,0.689-0.558,1.247-1.246,1.247h-4.752c-0.688,0-1.246-0.558-1.246-1.247v-3.504c0-0.688,0.559-1.246,1.246-1.246h4.752
				c0.689,0,1.246,0.558,1.246,1.246V116.224z M281.375,174.647c0,0.688-0.558,1.246-1.246,1.246h-4.751
				c-0.688,0-1.247-0.558-1.247-1.246v-3.504c0-0.688,0.56-1.246,1.247-1.246h4.751c0.688,0,1.246,0.558,1.246,1.246V174.647z
				 M281.375,116.224c0,0.689-0.558,1.247-1.246,1.247h-4.751c-0.688,0-1.247-0.558-1.247-1.247v-3.504
				c0-0.688,0.56-1.246,1.247-1.246h4.751c0.688,0,1.246,0.558,1.246,1.246V116.224z M292.435,174.647
				c0,0.688-0.558,1.246-1.246,1.246h-4.752c-0.688,0-1.246-0.558-1.246-1.246v-3.504c0-0.688,0.559-1.246,1.246-1.246h4.752
				c0.688,0,1.246,0.558,1.246,1.246V174.647z M292.435,116.224c0,0.689-0.558,1.247-1.246,1.247h-4.752
				c-0.688,0-1.246-0.558-1.246-1.247v-3.504c0-0.688,0.559-1.246,1.246-1.246h4.752c0.688,0,1.246,0.558,1.246,1.246V116.224z
				 M303.493,174.647c0,0.688-0.557,1.246-1.246,1.246h-4.752c-0.688,0-1.246-0.558-1.246-1.246v-3.504
				c0-0.688,0.559-1.246,1.246-1.246h4.752c0.689,0,1.246,0.558,1.246,1.246V174.647z M303.493,116.224
				c0,0.689-0.557,1.247-1.246,1.247h-4.752c-0.688,0-1.246-0.558-1.246-1.247v-3.504c0-0.688,0.559-1.246,1.246-1.246h4.752
				c0.689,0,1.246,0.558,1.246,1.246V116.224z"/>
			<g>
				<path style="fill:#FFFFFF;" d="M28.927,120.225H-30.98c-1.901,0-3.442,1.543-3.442,3.443v40.626
					c0,1.902,1.541,3.444,3.442,3.444h59.907c1.902,0,3.443-1.542,3.443-3.444v-40.626C32.37,121.768,30.829,120.225,28.927,120.225
					z"/>
				<path style="fill:#FFFFFF;" d="M99.473,120.225H39.565c-1.902,0-3.443,1.543-3.443,3.443v40.626
					c0,1.902,1.541,3.444,3.443,3.444h59.907c1.901,0,3.442-1.542,3.442-3.444v-40.626
					C102.915,121.768,101.374,120.225,99.473,120.225z"/>
				<path style="fill:#FFFFFF;" d="M170.017,120.225H110.11c-1.902,0-3.444,1.543-3.444,3.443v40.626
					c0,1.902,1.542,3.444,3.444,3.444h59.906c1.902,0,3.443-1.542,3.443-3.444v-40.626
					C173.46,121.768,171.919,120.225,170.017,120.225z"/>
				<path style="fill:#FFFFFF;" d="M240.561,120.225h-59.906h-0.001c-1.308,0-2.443,0.729-3.026,1.802
					c-0.266,0.487-0.416,1.047-0.416,1.641v40.626c0,0.595,0.15,1.154,0.416,1.642c0.583,1.073,1.719,1.802,3.026,1.802h0.001
					h59.906c1.902,0,3.445-1.542,3.445-3.444v-40.626C244.007,121.768,242.464,120.225,240.561,120.225z"/>
				<path style="fill:#FFFFFF;" d="M312.018,120.362c-0.292-0.081-0.593-0.137-0.91-0.137H251.2c-1.902,0-3.443,1.543-3.443,3.443
					v40.626c0,1.902,1.541,3.444,3.443,3.444h59.907c0.317,0,0.618-0.057,0.91-0.137V120.362z"/>
			</g>
		</g>
	</g>
</g>
</svg>
